<svg width="128" height="128" viewBox="0 0 128 128" fill="none" xmlns="http://www.w3.org/2000/svg">
<path d="M106.989 41.9165C104.543 39.8885 102.301 41.2045 100.828 42.372C93.2043 48.4097 86.782 53.1409 79.8981 58.3523C72.3222 64.0877 64.488 70.0188 56.0786 76.7456C49.6847 81.8602 48.1985 88.8728 51.9999 95.9856C53.0625 98.307 55.5563 100.365 58.8444 101.634C60.4784 102.282 62.2186 102.621 63.9765 102.634C68.5416 102.634 72.752 100.179 75.9788 95.4933C82.4389 86.1123 87.8981 77.8618 93.6779 69.1266C98.1886 62.3096 102.157 55.9181 107.317 48.3203C108.96 45.9008 108.835 43.4471 106.989 41.9165Z" fill="#00A1E1"/>
<path d="M64.0024 38.0761C70.4882 38.645 76.7962 40.4974 82.5598 43.5255C83.4091 43.9722 84.2486 44.4485 85.0636 44.9492C85.8933 44.2962 86.723 43.6384 87.5477 42.9854C90.9057 40.3245 94.2654 37.6669 97.6266 35.0126C94.7229 33.2001 91.6754 31.6288 88.5149 30.3144C87.9061 30.0591 87.2924 29.8087 86.6739 29.5731C77.1313 25.8994 66.8381 24.6031 56.6827 25.7961C46.5273 26.989 36.8147 30.6354 28.3833 36.4205C19.9519 42.2056 13.0549 49.9556 8.28773 59.0016C3.52053 68.0475 1.02629 78.1177 1.02029 88.343H6.66605C7.23864 80.9295 9.2743 73.7029 12.6555 67.0806C15.9405 60.6647 20.4621 54.9619 25.9598 50.3004C31.2811 45.7896 37.4431 42.3774 44.0901 40.2607C50.518 38.2242 57.2858 37.4817 64.0024 38.0761Z" fill="#002854"/>
<path d="M126.98 88.343C126.98 87.9355 126.975 87.528 126.965 87.1205C126.978 86.9491 126.981 86.7769 126.975 86.6051C126.877 84.1602 126.724 81.7006 126.386 79.2754C124.957 68.9599 120.955 59.1697 114.75 50.806L110.155 57.576C108.103 60.6002 106.038 63.644 103.96 66.7074C104.571 68.1543 105.105 69.6325 105.56 71.1357C107.237 76.7071 107.795 82.5549 107.205 88.343H126.98Z" fill="#002854"/>
</svg>
