<svg width="128" height="128" viewBox="0 0 128 128" fill="none" xmlns="http://www.w3.org/2000/svg">
<path d="M47.952 67.66L46.904 68.238C46.701 68.3451 46.5219 68.4924 46.3777 68.671C46.2335 68.8496 46.1272 69.0557 46.0652 69.2767C46.0033 69.4977 45.987 69.729 46.0174 69.9566C46.0478 70.1841 46.1242 70.403 46.242 70.6L49.142 75.4C49.3948 75.8013 49.7917 76.0904 50.2511 76.208C50.7106 76.3255 51.1976 76.2626 51.612 76.032L52.672 75.448C52.9953 75.2768 53.3609 75.2017 53.7255 75.2314C54.0902 75.2612 54.4387 75.3946 54.73 75.616C55.7744 76.3821 56.9114 77.0131 58.114 77.494C58.4502 77.6147 58.7424 77.8337 58.9525 78.1226C59.1626 78.4115 59.2809 78.757 59.292 79.114V80.272C59.303 80.7394 59.4985 81.1834 59.8357 81.5071C60.173 81.8309 60.6246 82.0081 61.092 82H66.892C67.3594 82.0081 67.811 81.8309 68.1483 81.5071C68.4855 81.1834 68.681 80.7394 68.692 80.272V79.114C68.7031 78.757 68.8214 78.4115 69.0315 78.1226C69.2416 77.8337 69.5338 77.6147 69.87 77.494C71.0726 77.0131 72.2096 76.3821 73.254 75.616C73.5453 75.3946 73.8938 75.2612 74.2585 75.2314C74.6231 75.2017 74.9887 75.2768 75.312 75.448L76.372 76.032C76.7864 76.2626 77.2734 76.3255 77.7329 76.208C78.1923 76.0904 78.5892 75.8013 78.842 75.4L81.742 70.6C81.8598 70.403 81.9362 70.1841 81.9666 69.9566C81.997 69.729 81.9807 69.4977 81.9188 69.2767C81.8568 69.0557 81.7505 68.8496 81.6063 68.671C81.4621 68.4924 81.283 68.3451 81.08 68.238L80.032 67.66C79.7302 67.5034 79.4834 67.2585 79.3244 66.958C79.1654 66.6575 79.1017 66.3156 79.142 65.978C79.3313 64.6661 79.3313 63.3339 79.142 62.022C79.1017 61.6844 79.1654 61.3426 79.3244 61.0421C79.4834 60.7415 79.7302 60.4966 80.032 60.34L81.08 59.762C81.283 59.6549 81.4621 59.5076 81.6063 59.329C81.7505 59.1504 81.8568 58.9443 81.9188 58.7233C81.9807 58.5023 81.997 58.271 81.9666 58.0435C81.9362 57.816 81.8598 57.597 81.742 57.4L78.842 52.6C78.5892 52.1988 78.1923 51.9096 77.7329 51.7921C77.2734 51.6745 76.7864 51.7375 76.372 51.968L75.312 52.552C74.9887 52.7232 74.6231 52.7984 74.2585 52.7686C73.8938 52.7388 73.5453 52.6054 73.254 52.384C72.2096 51.6179 71.0726 50.9869 69.87 50.506C69.5338 50.3854 69.2416 50.1664 69.0315 49.8774C68.8214 49.5885 68.7031 49.2431 68.692 48.886V47.728C68.681 47.2607 68.4855 46.8166 68.1483 46.4929C67.811 46.1692 67.3594 45.992 66.892 46H61.092C60.6246 45.992 60.173 46.1692 59.8357 46.4929C59.4985 46.8166 59.303 47.2607 59.292 47.728V48.886C59.2809 49.2431 59.1626 49.5885 58.9525 49.8774C58.7424 50.1664 58.4502 50.3854 58.114 50.506C56.9114 50.9869 55.7744 51.6179 54.73 52.384C54.4387 52.6054 54.0902 52.7388 53.7255 52.7686C53.3609 52.7984 52.9953 52.7232 52.672 52.552L51.612 51.968C51.1976 51.7375 50.7106 51.6745 50.2511 51.7921C49.7917 51.9096 49.3948 52.1988 49.142 52.6L46.242 57.4C46.1242 57.597 46.0478 57.816 46.0174 58.0435C45.987 58.271 46.0033 58.5023 46.0652 58.7233C46.1272 58.9443 46.2335 59.1504 46.3777 59.329C46.5219 59.5076 46.701 59.6549 46.904 59.762L47.952 60.34C48.2538 60.4966 48.5006 60.7415 48.6596 61.0421C48.8186 61.3426 48.8823 61.6844 48.842 62.022C48.6527 63.3339 48.6527 64.6661 48.842 65.978C48.8823 66.3156 48.8186 66.6575 48.6596 66.958C48.5006 67.2585 48.2538 67.5034 47.952 67.66ZM64 57.25C65.335 57.25 66.6401 57.6459 67.7501 58.3876C68.8601 59.1293 69.7253 60.1835 70.2362 61.4169C70.7471 62.6503 70.8807 64.0075 70.6203 65.3169C70.3598 66.6262 69.717 67.829 68.773 68.773C67.829 69.717 66.6262 70.3599 65.3168 70.6203C64.0075 70.8808 62.6503 70.7471 61.4169 70.2362C60.1835 69.7253 59.1293 68.8601 58.3876 67.7501C57.6459 66.6401 57.25 65.335 57.25 64C57.25 62.2098 57.9612 60.4929 59.227 59.227C60.4929 57.9612 62.2098 57.25 64 57.25Z" fill="#002854"/>
<path d="M42 20V16C35.1068 16.0079 28.4982 18.7498 23.624 23.624C18.7498 28.4982 16.0079 35.1068 16 42H20C20.0069 36.1673 22.3269 30.5756 26.4513 26.4513C30.5756 22.3269 36.1673 20.0069 42 20Z" fill="#002854"/>
<path d="M20 86H16C16.0079 92.8932 18.7498 99.5018 23.624 104.376C28.4982 109.25 35.1068 111.992 42 112V108C36.1673 107.993 30.5756 105.673 26.4513 101.549C22.3269 97.4244 20.0069 91.8327 20 86Z" fill="#002854"/>
<path d="M112 86H108C107.993 91.8327 105.673 97.4244 101.549 101.549C97.4244 105.673 91.8327 107.993 86 108V112C92.8932 111.992 99.5018 109.25 104.376 104.376C109.25 99.5018 111.992 92.8932 112 86Z" fill="#002854"/>
<path d="M108 42H112C111.992 35.1068 109.25 28.4982 104.376 23.624C99.5018 18.7498 92.8932 16.0079 86 16V20C91.8327 20.0069 97.4244 22.3269 101.549 26.4513C105.673 30.5756 107.993 36.1673 108 42Z" fill="#002854"/>
<path d="M64 34C67.1645 34 70.2579 33.0616 72.8891 31.3035C75.5203 29.5454 77.5711 27.0466 78.7821 24.1229C79.9931 21.1993 80.3099 17.9823 79.6926 14.8786C79.0752 11.7749 77.5513 8.92394 75.3137 6.6863C73.0761 4.44866 70.2251 2.92481 67.1214 2.30744C64.0177 1.69008 60.8007 2.00693 57.8771 3.21793C54.9534 4.42894 52.4546 6.4797 50.6965 9.11088C48.9384 11.7421 48 14.8355 48 18C48.0048 22.242 49.692 26.3089 52.6916 29.3085C55.6911 32.308 59.758 33.9952 64 34ZM56.88 20.44C56.8821 19.4965 57.2579 18.5922 57.925 17.925C58.5922 17.2579 59.4965 16.8821 60.44 16.88H63.912C62.7412 16.8568 61.6269 16.3725 60.8113 15.5322C59.9957 14.692 59.5446 13.5638 59.5562 12.3929C59.5678 11.2219 60.0411 10.1029 60.8732 9.27898C61.7053 8.45506 62.829 7.99288 64 7.99288C65.171 7.99288 66.2947 8.45506 67.1268 9.27898C67.9589 10.1029 68.4322 11.2219 68.4438 12.3929C68.4554 13.5638 68.0043 14.692 67.1887 15.5322C66.3731 16.3725 65.2588 16.8568 64.088 16.88H67.56C68.5035 16.8821 69.4078 17.2579 70.075 17.925C70.7421 18.5922 71.1179 19.4965 71.12 20.44V27.64C69.0625 29.1724 66.5655 30.0001 64 30.0001C61.4345 30.0001 58.9375 29.1724 56.88 27.64V20.44Z" fill="#00A1E1"/>
<path d="M18 80C21.1645 80 24.2579 79.0616 26.8891 77.3035C29.5203 75.5454 31.5711 73.0466 32.7821 70.1229C33.9931 67.1993 34.3099 63.9823 33.6926 60.8786C33.0752 57.7749 31.5513 54.9239 29.3137 52.6863C27.0761 50.4487 24.2251 48.9248 21.1214 48.3074C18.0177 47.6901 14.8007 48.0069 11.8771 49.2179C8.95345 50.4289 6.45459 52.4797 4.69649 55.1109C2.93838 57.7421 2 60.8355 2 64C2.00476 68.242 3.692 72.3089 6.69155 75.3085C9.6911 78.308 13.758 79.9952 18 80ZM10.88 66.44C10.8821 65.4965 11.2579 64.5922 11.925 63.925C12.5922 63.2579 13.4965 62.8821 14.44 62.88H17.912C16.7412 62.8568 15.6269 62.3725 14.8113 61.5322C13.9957 60.692 13.5446 59.5638 13.5562 58.3929C13.5678 57.2219 14.0411 56.1029 14.8732 55.279C15.7053 54.4551 16.829 53.9929 18 53.9929C19.171 53.9929 20.2947 54.4551 21.1268 55.279C21.9589 56.1029 22.4322 57.2219 22.4438 58.3929C22.4554 59.5638 22.0043 60.692 21.1887 61.5322C20.3731 62.3725 19.2588 62.8568 18.088 62.88H21.56C22.5035 62.8821 23.4078 63.2579 24.075 63.925C24.7421 64.5922 25.1179 65.4965 25.12 66.44V73.64C23.0625 75.1724 20.5655 76.0001 18 76.0001C15.4345 76.0001 12.9375 75.1724 10.88 73.64V66.44Z" fill="#00A1E1"/>
<path d="M80 110C80 106.836 79.0616 103.742 77.3035 101.111C75.5454 98.4797 73.0466 96.4289 70.1229 95.2179C67.1993 94.0069 63.9823 93.6901 60.8786 94.3074C57.7749 94.9248 54.9239 96.4487 52.6863 98.6863C50.4487 100.924 48.9248 103.775 48.3074 106.879C47.6901 109.982 48.0069 113.199 49.2179 116.123C50.4289 119.047 52.4797 121.545 55.1109 123.304C57.7421 125.062 60.8355 126 64 126C68.242 125.995 72.3089 124.308 75.3085 121.308C78.308 118.309 79.9952 114.242 80 110ZM56.88 112.44C56.8821 111.496 57.2579 110.592 57.925 109.925C58.5922 109.258 59.4965 108.882 60.44 108.88H63.912C62.7412 108.857 61.6269 108.372 60.8113 107.532C59.9957 106.692 59.5446 105.564 59.5562 104.393C59.5678 103.222 60.0411 102.103 60.8732 101.279C61.7053 100.455 62.829 99.9929 64 99.9929C65.171 99.9929 66.2947 100.455 67.1268 101.279C67.9589 102.103 68.4322 103.222 68.4438 104.393C68.4554 105.564 68.0043 106.692 67.1887 107.532C66.3731 108.372 65.2588 108.857 64.088 108.88H67.56C68.5035 108.882 69.4078 109.258 70.075 109.925C70.7421 110.592 71.1179 111.496 71.12 112.44V119.64C69.0625 121.172 66.5655 122 64 122C61.4345 122 58.9375 121.172 56.88 119.64V112.44Z" fill="#00A1E1"/>
<path d="M110 48C106.836 48 103.742 48.9384 101.111 50.6965C98.4797 52.4546 96.4289 54.9534 95.2179 57.8771C94.0069 60.8007 93.6901 64.0177 94.3074 67.1214C94.9248 70.2251 96.4487 73.0761 98.6863 75.3137C100.924 77.5513 103.775 79.0752 106.879 79.6926C109.982 80.3099 113.199 79.9931 116.123 78.7821C119.047 77.5711 121.545 75.5203 123.304 72.8891C125.062 70.2579 126 67.1645 126 64C125.995 59.758 124.308 55.6911 121.308 52.6916C118.309 49.692 114.242 48.0048 110 48ZM117.12 73.64C115.062 75.1724 112.565 76.0001 110 76.0001C107.435 76.0001 104.938 75.1724 102.88 73.64V66.44C102.882 65.4965 103.258 64.5922 103.925 63.925C104.592 63.2579 105.496 62.8821 106.44 62.88H109.912C108.741 62.8568 107.627 62.3725 106.811 61.5322C105.996 60.692 105.545 59.5638 105.556 58.3929C105.568 57.2219 106.041 56.1029 106.873 55.279C107.705 54.4551 108.829 53.9929 110 53.9929C111.171 53.9929 112.295 54.4551 113.127 55.279C113.959 56.1029 114.432 57.2219 114.444 58.3929C114.455 59.5638 114.004 60.692 113.189 61.5322C112.373 62.3725 111.259 62.8568 110.088 62.88H113.56C114.504 62.8821 115.408 63.2579 116.075 63.925C116.742 64.5922 117.118 65.4965 117.12 66.44V73.64Z" fill="#00A1E1"/>
</svg>
