<svg width="114" height="114" viewBox="0 0 114 114" fill="none" xmlns="http://www.w3.org/2000/svg">
<path d="M17.3227 24.022L14.7399 26.4748C15.0712 26.831 47.497 60.5732 93.293 77.1602L88.1024 79.6379L89.6361 82.8442L98.7311 78.5033C99.1571 78.2996 99.4848 77.935 99.6422 77.4898C99.7995 77.0445 99.7736 76.555 99.5701 76.1289L95.231 67.0445L92.0247 68.5782L94.5185 73.8168C49.5348 57.5344 17.6487 24.3658 17.3227 24.022Z" fill="black"/>
<path d="M87.2813 1.78125C82.3491 1.78125 77.5277 3.24381 73.4267 5.98398C69.3258 8.72414 66.1295 12.6188 64.242 17.1756C62.3546 21.7323 61.8607 26.7464 62.8229 31.5838C63.7851 36.4212 66.1602 40.8647 69.6478 44.3522C73.1354 47.8398 77.5788 50.2149 82.4162 51.1771C87.2536 52.1393 92.2677 51.6455 96.8244 49.758C101.381 47.8705 105.276 44.6742 108.016 40.5733C110.756 36.4723 112.219 31.6509 112.219 26.7188C112.219 20.1049 109.591 13.762 104.915 9.08527C100.238 4.40859 93.8951 1.78125 87.2813 1.78125ZM76.3782 17.597C77.1255 16.8495 78.0777 16.3404 79.1143 16.134C80.1509 15.9277 81.2255 16.0335 82.202 16.4379C83.1785 16.8423 84.0132 17.5272 84.6005 18.406C85.1877 19.2848 85.5012 20.318 85.5012 21.375C85.5012 22.432 85.1877 23.4652 84.6005 24.344C84.0132 25.2228 83.1785 25.9077 82.202 26.3121C81.2255 26.7165 80.1509 26.8223 79.1143 26.616C78.0777 26.4096 77.1255 25.9005 76.3782 25.153C75.3764 24.1509 74.8137 22.792 74.8137 21.375C74.8137 19.958 75.3764 18.5991 76.3782 17.597ZM79.7234 36.7953L77.2047 34.2766L94.8391 16.6422L97.3578 19.1609L79.7234 36.7953ZM98.1843 35.8405C97.437 36.588 96.4849 37.0971 95.4482 37.3035C94.4116 37.5098 93.3371 37.404 92.3605 36.9996C91.384 36.5952 90.5493 35.9103 89.9621 35.0315C89.3748 34.1527 89.0614 33.1195 89.0614 32.0625C89.0614 31.0055 89.3748 29.9723 89.9621 29.0935C90.5493 28.2147 91.384 27.5298 92.3605 27.1254C93.3371 26.721 94.4116 26.6152 95.4482 26.8215C96.4849 27.0279 97.437 27.537 98.1843 28.2845C98.6829 28.7792 99.0786 29.3678 99.3487 30.0162C99.6187 30.6646 99.7578 31.3601 99.7578 32.0625C99.7578 32.7649 99.6187 33.4604 99.3487 34.1088C99.0786 34.7572 98.6829 35.3458 98.1843 35.8405Z" fill="#002854"/>
<path d="M108.656 92.625H87.2812V112.219H108.656V92.625Z" fill="#00A1E1"/>
<path d="M67.6875 71.25H46.3125V112.219H67.6875V71.25Z" fill="#00A1E1"/>
<path d="M26.7188 46.3125H5.34375V112.219H26.7188V46.3125Z" fill="#00A1E1"/>
</svg>
