<svg width="112" height="112" viewBox="0 0 112 112" fill="none" xmlns="http://www.w3.org/2000/svg">
<path d="M104.077 21.8959L82.8277 23.7222C82.7203 23.7314 82.6179 23.7715 82.5328 23.8376C82.4478 23.9038 82.3836 23.9931 82.3482 24.0949C82.3127 24.1966 82.3075 24.3065 82.333 24.4111C82.3586 24.5158 82.414 24.6109 82.4924 24.6848L87.8526 29.7403L86.6628 30.9547L85.8688 31.765L81.8386 35.9489C80.2856 37.5857 78.7389 39.2264 77.1983 40.8709C76.0947 42.0537 74.9973 43.2435 73.9061 44.4402C71.2938 47.2994 68.7148 50.1911 66.1692 53.1154C64.9026 54.5823 63.6406 56.0561 62.3973 57.5462C62.0667 57.942 61.7407 58.3424 61.4125 58.7406L60.083 57.9932L39.3402 46.333L36.0294 44.4728L33.6568 47.0572L30.6883 50.2912L7.31683 75.7487L12.2249 80.5357L37.5125 56.1329H37.5148L52.3181 65.7627L59.8874 70.687L62.6325 72.4728L63.2611 72.8803L66.8327 69.7511C68.2949 68.4682 69.7346 67.1643 71.1517 65.8395C72.5743 64.5171 73.9759 63.1783 75.3729 61.8349C78.1622 59.141 80.9104 56.4099 83.6174 53.6416C86.3369 50.8826 89.0051 48.0746 91.6663 45.2621L95.6268 41.0106L96.1623 40.4262L97.5626 38.898L102.681 43.7249C102.758 43.7981 102.855 43.8475 102.96 43.8674C103.065 43.8872 103.173 43.8766 103.272 43.8369C103.371 43.7971 103.456 43.7299 103.518 43.6431C103.58 43.5563 103.616 43.4536 103.621 43.347L104.682 22.4805C104.686 22.4009 104.673 22.3213 104.644 22.2471C104.615 22.1729 104.57 22.1059 104.513 22.0505C104.455 21.9951 104.387 21.9526 104.312 21.926C104.236 21.8993 104.156 21.889 104.077 21.8959Z" fill="#00A1E1"/>
<path d="M12.3315 108.559C12.3322 109.043 12.5248 109.508 12.8673 109.85C13.2097 110.192 13.6739 110.385 14.1582 110.386H26.8207C27.305 110.385 27.7692 110.192 28.1116 109.85C28.454 109.508 28.6467 109.043 28.6474 108.559V71.6115L12.3315 87.3566V108.559Z" fill="#002854"/>
<path d="M34.9579 65.5211V108.559C34.9587 109.043 35.1513 109.508 35.4938 109.85C35.8362 110.192 36.3004 110.385 36.7847 110.386H49.4472C49.9314 110.385 50.3957 110.192 50.7381 109.85C51.0805 109.508 51.2732 109.043 51.2739 108.559V71.0261L38.1194 62.4696L34.9579 65.5211Z" fill="#002854"/>
<path d="M63.7123 79.1094L57.5844 75.1301V108.559C57.5851 109.043 57.7778 109.508 58.1202 109.85C58.4626 110.192 58.9269 110.385 59.4111 110.386H72.0736C72.5579 110.385 73.0221 110.192 73.3645 109.85C73.707 109.508 73.8997 109.043 73.9004 108.559V70.0879C72.6839 71.2151 71.4115 72.3609 70.1182 73.4964L63.7123 79.1094Z" fill="#002854"/>
<path d="M87.1649 57.1388C84.6573 59.6921 82.3656 61.9776 80.2109 64.0804V108.559C80.2116 109.043 80.4043 109.508 80.7467 109.85C81.0891 110.192 81.5533 110.385 82.0376 110.386H94.7001C95.1844 110.385 95.6486 110.192 95.991 109.85C96.3334 109.507 96.5261 109.043 96.5268 108.559V47.3534L95.2855 48.6861C92.7135 51.4033 89.9693 54.2949 87.1649 57.1388Z" fill="#002854"/>
<path d="M63.2235 34.6683C62.439 35.2434 60.9776 35.5322 58.8393 35.5345C57.0197 35.544 55.2079 35.2966 53.4575 34.7997C51.9524 34.3819 50.4857 33.8368 49.0732 33.1702L46.8154 39.2088C47.9709 39.7534 49.1547 40.2358 50.3618 40.6537C52.3751 41.3153 54.4658 41.7127 56.5815 41.8358V48.0838H63.1987V41.6761C64.7073 41.4619 66.1704 41.0014 67.5297 40.3129C68.619 39.75 69.5903 38.9836 70.391 38.0551C71.1047 37.2191 71.6409 36.2469 71.9672 35.1973C72.2795 34.1853 72.4387 33.1323 72.4394 32.0733C72.4709 30.6831 72.1932 29.3032 71.6264 28.0334C71.0884 26.8836 70.3199 25.8565 69.3686 25.0159C68.3345 24.1102 67.1879 23.3418 65.9571 22.7297C64.5684 22.0298 63.1386 21.4146 61.6757 20.8872C60.6604 20.5357 59.7942 20.2115 59.0771 19.9145C58.4478 19.6618 57.8419 19.3541 57.2666 18.9951C56.8261 18.7291 56.4569 18.3599 56.1909 17.9194C55.9511 17.4765 55.8323 16.9781 55.8466 16.4746C55.8378 16.0451 55.9337 15.6199 56.1261 15.2358C56.3184 14.8517 56.6014 14.5202 56.9507 14.27C58.0407 13.6164 59.3087 13.3221 60.5752 13.4286C62.191 13.4211 63.8024 13.5973 65.3784 13.954C66.7507 14.2572 68.0941 14.6789 69.3935 15.2143L71.0229 8.91299C70.0106 8.48167 68.9661 8.13033 67.8989 7.86219C66.3556 7.47493 64.7839 7.21139 63.1987 7.07407V1.61414H56.5815V7.28708C55.1883 7.51662 53.8411 7.96849 52.5912 8.62541C51.5719 9.15517 50.6685 9.883 49.9339 10.7663C49.1994 11.6496 48.6485 12.6705 48.3135 13.7694C47.9782 14.8487 47.8094 15.9727 47.813 17.1029C47.7646 18.3522 48.0075 19.5957 48.5226 20.7349C49.0377 21.8742 49.8108 22.8779 50.7808 23.6669C51.6945 24.4136 52.7002 25.04 53.7734 25.5306C54.8775 26.0383 56.0064 26.5021 57.1602 26.9222C58.3494 27.3447 59.4002 27.7352 60.3126 28.1043C61.0986 28.4098 61.8544 28.7878 62.5704 29.2333C63.1068 29.5653 63.5706 30.0025 63.9336 30.5184C64.2591 31.0272 64.4237 31.6222 64.4058 32.226C64.427 32.6992 64.3301 33.1703 64.1237 33.5967C63.9173 34.0231 63.6079 34.3914 63.2235 34.6683Z" fill="#002854"/>
</svg>
