<svg width="128" height="128" viewBox="0 0 128 128" fill="none" xmlns="http://www.w3.org/2000/svg">
<path d="M103.518 20.7433H84.1543C83.6408 20.7433 83.1483 20.9473 82.7851 21.3104C82.422 21.6735 82.218 22.166 82.218 22.6796C82.218 23.1931 82.422 23.6856 82.7851 24.0487C83.1483 24.4119 83.6408 24.6159 84.1543 24.6159H103.518C104.031 24.6159 104.524 24.4119 104.887 24.0487C105.25 23.6856 105.454 23.1931 105.454 22.6796C105.454 22.166 105.25 21.6735 104.887 21.3104C104.524 20.9473 104.031 20.7433 103.518 20.7433H103.518Z" fill="#00A1E1"/>
<path d="M76.4089 20.7433H49.2997C48.7862 20.7433 48.2937 20.9473 47.9305 21.3104C47.5674 21.6735 47.3634 22.166 47.3634 22.6796C47.3634 23.1931 47.5674 23.6856 47.9305 24.0487C48.2937 24.4119 48.7862 24.6159 49.2997 24.6159H76.4089C76.9224 24.6159 77.4149 24.4119 77.778 24.0487C78.1412 23.6856 78.3452 23.1931 78.3452 22.6796C78.3452 22.166 78.1412 21.6735 77.778 21.3104C77.4149 20.9473 76.9224 20.7433 76.4089 20.7433Z" fill="#00A1E1"/>
<path d="M105.454 39.2487C105.454 38.9944 105.404 38.7425 105.307 38.5076C105.21 38.2726 105.067 38.0592 104.887 37.8793C104.707 37.6995 104.494 37.5569 104.259 37.4596C104.024 37.3623 103.772 37.3123 103.518 37.3124H84.1543C83.6408 37.3124 83.1483 37.5164 82.7851 37.8795C82.422 38.2426 82.218 38.7351 82.218 39.2487C82.218 39.7622 82.422 40.2547 82.7851 40.6178C83.1483 40.981 83.6408 41.185 84.1543 41.185H103.518C103.772 41.185 104.024 41.135 104.259 41.0377C104.494 40.9404 104.707 40.7978 104.887 40.618C105.067 40.4382 105.21 40.2247 105.307 39.9897C105.404 39.7548 105.454 39.503 105.454 39.2487Z" fill="#00A1E1"/>
<path d="M78.3452 39.2487C78.3452 38.9944 78.2952 38.7426 78.1979 38.5076C78.1006 38.2727 77.958 38.0592 77.7782 37.8794C77.5984 37.6995 77.3849 37.5569 77.15 37.4596C76.915 37.3623 76.6632 37.3123 76.4089 37.3124H49.2997C48.7862 37.3124 48.2937 37.5164 47.9305 37.8795C47.5674 38.2426 47.3634 38.7351 47.3634 39.2487C47.3634 39.7622 47.5674 40.2547 47.9305 40.6178C48.2937 40.981 48.7862 41.185 49.2997 41.185H76.4089C76.6632 41.185 76.915 41.135 77.15 41.0377C77.3849 40.9404 77.5984 40.7978 77.7782 40.618C77.958 40.4382 78.1006 40.2247 78.1979 39.9897C78.2952 39.7548 78.3452 39.503 78.3452 39.2487Z" fill="#00A1E1"/>
<path d="M72.5361 53.8815H49.2997C48.7862 53.8815 48.2937 54.0855 47.9305 54.4486C47.5674 54.8117 47.3634 55.3042 47.3634 55.8178C47.3634 56.3313 47.5674 56.8238 47.9305 57.1869C48.2937 57.55 48.7862 57.754 49.2997 57.754H72.5361C73.0496 57.754 73.5421 57.55 73.9052 57.1869C74.2684 56.8238 74.4724 56.3313 74.4724 55.8178C74.4724 55.3042 74.2684 54.8117 73.9052 54.4486C73.5421 54.0855 73.0496 53.8815 72.5361 53.8815Z" fill="#00A1E1"/>
<path d="M80.2818 53.8815C79.7682 53.8815 79.2757 54.0855 78.9126 54.4486C78.5495 54.8117 78.3455 55.3042 78.3455 55.8178C78.3455 56.3313 78.5495 56.8238 78.9126 57.1869C79.2757 57.5501 79.7682 57.7541 80.2818 57.7541H89.7435C90.2571 57.7541 90.7496 57.5501 91.1127 57.1869C91.4758 56.8238 91.6798 56.3313 91.6798 55.8178C91.6798 55.3042 91.4758 54.8117 91.1127 54.4486C90.7496 54.0855 90.2571 53.8815 89.7435 53.8815H80.2818Z" fill="#00A1E1"/>
<path d="M97.8536 112.255C96.5912 112.471 95.2936 112.319 94.1145 111.82C92.9354 111.32 91.9243 110.493 91.2011 109.436L90.7411 108.761L84.6113 121.562L90.5206 121.329L94.044 126.079L100.892 111.781L100.813 111.747L97.8536 112.255Z" fill="#002854"/>
<path d="M112.915 109.666L110.7 111.696C109.465 112.824 107.852 113.448 106.18 113.447C106.118 113.447 106.058 113.445 105.997 113.444L112.048 126.079L115.57 121.329L121.479 121.562L115.566 109.212L112.915 109.666Z" fill="#002854"/>
<path d="M123.253 93.2592L122.064 89.5855L123.05 85.8522C123.235 85.1549 123.214 84.4194 122.992 83.7333C122.77 83.0472 122.356 82.4393 121.798 81.9822L118.812 79.5345L117.623 75.8607C117.4 75.1746 116.986 74.5668 116.428 74.1096C115.87 73.6524 115.193 73.3652 114.477 73.2822L110.641 72.8376L107.655 70.3899C107.097 69.9327 106.419 69.6455 105.703 69.5625C104.987 69.4795 104.261 69.6041 103.614 69.9215L100.147 71.6212L96.3112 71.1766C95.5948 71.0936 94.8697 71.2182 94.2221 71.5357C93.5746 71.8531 93.0319 72.35 92.6588 72.9671L90.6611 76.2715L87.1939 77.9712C86.5464 78.2886 86.0037 78.7855 85.6306 79.4026C85.2575 80.0198 85.0696 80.7312 85.0894 81.4521L85.1952 85.3119L83.1974 88.6162C82.8242 89.2334 82.6364 89.9448 82.6561 90.6657C82.6759 91.3866 82.9024 92.0866 83.3088 92.6824L85.4846 95.8723L85.5904 99.7322C85.6102 100.453 85.8368 101.153 86.2431 101.749C86.6495 102.345 87.2185 102.811 87.8825 103.093L91.4375 104.6L93.6133 107.79C94.0197 108.386 94.5887 108.852 95.2527 109.133C95.9167 109.415 96.6476 109.5 97.3583 109.378L101.164 108.724L104.719 110.231C105.383 110.512 106.114 110.597 106.824 110.475C107.535 110.353 108.196 110.029 108.728 109.542L111.576 106.934L115.381 106.28C116.092 106.158 116.752 105.834 117.284 105.347C117.816 104.86 118.197 104.23 118.381 103.533L119.367 99.7997L122.215 97.192C122.747 96.705 123.127 96.0754 123.312 95.3781C123.496 94.6808 123.476 93.9454 123.253 93.2592Z" fill="#00A1E1"/>
<path d="M36.563 108.102V17.9226C36.5653 14.6823 35.5797 11.5183 33.7377 8.85253H107.437C109.841 8.85566 112.146 9.81237 113.846 11.5127C115.546 13.2131 116.501 15.5183 116.504 17.9226V68.4911C117.899 68.8956 119.174 69.6352 120.217 70.6454C121.261 71.6557 122.041 72.9059 122.491 74.287L123.217 76.5314L123.435 76.7096V17.9226C123.431 13.6807 121.744 9.61364 118.745 6.61383C115.746 3.61402 111.679 1.92642 107.437 1.92126H20.5617C16.3197 1.92642 12.2531 3.61402 9.25388 6.61383C6.2547 9.61364 4.56793 13.6807 4.56366 17.9226V30.1744C4.56466 31.0933 4.93011 31.9742 5.57982 32.6239C6.22953 33.2736 7.11044 33.639 8.02927 33.6401H29.6317V111.567C29.6327 112.486 29.9982 113.367 30.6479 114.017C31.2976 114.666 32.1785 115.032 33.0973 115.033H82.0651L85.3855 108.102H36.563ZM29.6317 26.7088H11.4949V17.9226C11.4949 16.7317 11.7295 15.5525 12.1852 14.4523C12.6409 13.352 13.3089 12.3523 14.151 11.5103C14.9931 10.6682 15.9928 10.0002 17.093 9.54447C18.1932 9.08874 19.3724 8.85418 20.5633 8.85418C21.7542 8.85418 22.9334 9.08874 24.0336 9.54447C25.1339 10.0002 26.1336 10.6682 26.9756 11.5103C27.8177 12.3523 28.4857 13.352 28.9414 14.4523C29.3971 15.5525 29.6317 16.7317 29.6317 17.9226V26.7088Z" fill="#002854"/>
<path d="M62.6907 91.5568C62.9881 91.9661 63.3856 92.2922 63.8452 92.5039C64.3048 92.7155 64.811 92.8056 65.3154 92.7655L65.6029 92.7639C66.2675 92.7607 66.9334 92.7356 67.5739 92.7062L67.6154 92.7043C68.0467 92.6843 68.478 92.664 68.908 92.654L69.3737 92.644C70.3584 92.6214 71.3431 92.5992 72.3278 92.5837C72.787 92.5766 73.2246 92.3878 73.5448 92.0587C73.8651 91.7296 74.0418 91.287 74.0363 90.8278C74.0308 90.3686 73.8435 89.9303 73.5155 89.609C73.1875 89.2876 72.7454 89.1094 72.2863 89.1133H72.2734C71.3593 89.1274 70.4451 89.1481 69.531 89.1687L68.8303 89.1845C68.3961 89.1945 67.962 89.2141 67.5281 89.2338L67.4536 89.2374C66.7552 89.2699 66.1885 89.287 65.6203 89.2934C65.7129 88.0761 65.5999 86.8519 65.286 85.6721L65.2399 85.5313C64.9286 84.4991 64.2428 83.6206 63.317 83.0682C62.3911 82.5158 61.2923 82.3295 60.2361 82.5459C60.0532 82.5831 59.8725 82.6306 59.6949 82.688C59.6941 81.6066 59.4517 80.5389 58.9854 79.5631C58.5191 78.5873 57.8408 77.7279 56.9999 77.0478C56.1591 76.3677 55.1769 75.884 54.1252 75.632C53.0735 75.38 51.9788 75.3661 50.921 75.5913C49.8632 75.8165 48.8691 76.2752 48.0112 76.9337C47.1534 77.5923 46.4535 78.4341 45.9626 79.3978C45.4717 80.3615 45.2023 81.4226 45.1739 82.5037C45.1456 83.5848 45.3591 84.6586 45.7989 85.6467L47.6706 89.9977C47.8526 90.4205 48.195 90.7537 48.6227 90.9241C49.0503 91.0944 49.5281 91.0878 49.9509 90.9059C50.3737 90.7239 50.7069 90.3814 50.8773 89.9538C51.0476 89.5262 51.041 89.0484 50.8591 88.6256L48.9873 84.2748C48.6167 83.4704 48.54 82.5614 48.7704 81.7062C49.0009 80.851 49.5239 80.1037 50.2486 79.5944C50.8745 79.1809 51.6073 78.9589 52.3574 78.9555C53.1075 78.9521 53.8423 79.1675 54.4719 79.5752C55.1015 79.9829 55.5985 80.5654 55.9023 81.2512C56.206 81.937 56.3032 82.6966 56.182 83.4368L55.3298 88.6298L55.303 88.7455C55.2795 88.847 55.2563 88.9486 55.2298 89.0485C55.1121 89.4899 55.1732 89.9598 55.3998 90.3564C55.6264 90.753 56.0003 91.0443 56.4403 91.167C56.8803 91.2897 57.3509 91.234 57.75 91.0119C58.1492 90.7898 58.4447 90.4192 58.5723 89.9807C58.6268 89.8564 58.6659 89.726 58.6887 89.5923L58.7342 89.3147L58.7674 89.1774C58.7835 89.1117 58.7996 89.0462 58.8147 88.9795C58.9285 88.3566 59.1112 87.7483 59.3595 87.1658C59.5182 86.8621 59.7405 86.596 60.0111 86.3857C60.2817 86.1754 60.5944 86.0257 60.9279 85.9468C61.627 85.804 61.9091 86.5164 61.9561 86.6546L61.9722 86.7033C62.1644 87.5335 62.2243 88.3889 62.1495 89.2377C62.0777 90.0487 62.2673 90.8614 62.6907 91.5568Z" fill="#00A1E1"/>
</svg>
