<svg width="1919" height="1300" viewBox="0 0 1919 1300" fill="none" xmlns="http://www.w3.org/2000/svg">
<path d="M438.484 4.27217C218.941 7.4062 54.6851 46.7122 0 65.9735V1300C102.681 1269.8 351.891 1208.13 527.285 1203.04C702.679 1197.95 888.675 1233.89 959.749 1252.5C1045.54 1268.33 1260.17 1300 1432.35 1300C1604.53 1300 1829.19 1224.26 1920 1186.39V4.27217C1824.34 24.8393 1586.57 65.9735 1400.74 65.9735C1214.91 65.9735 1029.32 41.4888 959.749 29.2465C877.471 19.6159 658.028 1.13813 438.484 4.27217Z" fill="#0097D3" fill-opacity="0.3"/>
<path d="M1481.52 0.353466C1701.06 3.4875 1865.31 42.7935 1920 62.0548V1296.08C1817.32 1265.88 1568.11 1204.21 1392.71 1199.12C1217.32 1194.03 1031.32 1229.97 960.251 1248.58C874.46 1264.41 659.834 1296.08 487.651 1296.08C315.468 1296.08 90.8074 1220.34 0 1182.47V0.353466C95.6572 20.9206 333.429 62.0548 519.258 62.0548C705.087 62.0548 890.682 37.5701 960.251 25.3278C1042.53 15.6972 1261.97 -2.78057 1481.52 0.353466Z" fill="#0097D3" fill-opacity="0.5"/>
</svg>
