<svg width="590" height="900" viewBox="0 0 590 900" fill="none" xmlns="http://www.w3.org/2000/svg">
<path d="M523.489 0H32.6473C14.6415 0 0 14.6647 0 32.699V369.593C0 387.627 14.6415 402.292 32.6473 402.292H523.489C541.494 402.292 556.136 387.627 556.136 369.593V32.699C556.136 14.6647 541.494 0 523.489 0Z" fill="white"/>
<path d="M276.124 200.313C306.459 200.313 331.051 175.683 331.051 145.299C331.051 114.916 306.459 90.2849 276.124 90.2849C245.788 90.2849 221.197 114.916 221.197 145.299C221.197 175.683 245.788 200.313 276.124 200.313Z" fill="#62E0F6"/>
<path d="M286.543 120.749C279.745 121.03 272.09 121.462 266.947 126.529C262.687 130.727 261.197 137.262 265.112 142.205C269.234 147.409 276.088 148.397 281.469 151.722C284.813 153.789 287.029 156.92 287.101 160.944C287.168 164.712 285.433 168.232 282.531 170.593C275.411 176.386 265.701 173.988 258.965 168.921C257.64 167.925 256.355 170.162 257.665 171.148C263.244 175.344 270.427 177.781 277.369 175.976C283.758 174.314 288.905 169.28 289.598 162.552C290.327 155.462 285.679 150.634 279.652 147.864C274.143 145.333 264.48 142.635 265.391 134.77C266.549 124.77 278.771 123.649 286.543 123.328C288.194 123.26 288.203 120.681 286.543 120.749V120.749Z" fill="white"/>
<path d="M274.728 116.073L274.419 186.832C274.412 188.491 276.987 188.493 276.994 186.832L277.303 116.073C277.31 114.413 274.735 114.411 274.728 116.073Z" fill="white"/>
<path d="M523.802 0H32.9603C14.9546 0 0.31308 14.6647 0.31308 32.699V369.593C0.31308 387.627 14.9546 402.292 32.9603 402.292H523.802C541.807 402.292 556.449 387.627 556.449 369.593V32.699C556.449 14.6647 541.807 0 523.802 0ZM553.016 369.593C553.016 385.736 539.919 398.853 523.802 398.853H32.9603C16.8427 398.853 3.74602 385.736 3.74602 369.593V32.699C3.74602 16.5559 16.8427 3.43839 32.9603 3.43839H523.802C539.919 3.43839 553.016 16.5559 553.016 32.699V369.593Z" fill="#3F3D56"/>
<path d="M221.789 33.2664H173.625C171.205 33.2664 169.231 35.2435 169.231 37.6676C169.231 40.1088 171.205 42.0859 173.625 42.0859H221.789C224.209 42.0859 226.183 40.1088 226.183 37.6676C226.183 35.2435 224.209 33.2664 221.789 33.2664Z" fill="#E6E6E6"/>
<path d="M302.463 33.2664H254.299C251.879 33.2664 249.905 35.2435 249.905 37.6676C249.905 40.1088 251.879 42.0859 254.299 42.0859H302.463C304.883 42.0859 306.857 40.1088 306.857 37.6676C306.857 35.2435 304.883 33.2664 302.463 33.2664Z" fill="#E6E6E6"/>
<path d="M383.137 33.2664H334.973C332.553 33.2664 330.579 35.2435 330.579 37.6676C330.579 40.1088 332.553 42.0859 334.973 42.0859H383.137C385.557 42.0859 387.531 40.1088 387.531 37.6676C387.531 35.2435 385.557 33.2664 383.137 33.2664Z" fill="#E6E6E6"/>
<path d="M462.178 230H93.7896C78.4616 230 66 242.481 66 257.834V282.968C66 298.321 78.4616 310.802 93.7896 310.802H462.178C477.506 310.802 489.968 298.321 489.968 282.968V257.834C489.968 242.481 477.506 230 462.178 230Z" fill="#62E0F6"/>
<path d="M557.948 410.008L557.047 480.218L539.605 542.806L525.662 537.597L531.853 480.228L531.039 402.594L557.948 410.008Z" fill="#FFB6B6"/>
<path d="M539.546 552.898C541.182 543.898 538.183 535.814 532.848 534.841C527.513 533.868 521.861 540.375 520.225 549.375C518.589 558.375 521.588 566.459 526.923 567.432C532.258 568.405 537.91 561.898 539.546 552.898Z" fill="#FFB6B6"/>
<path d="M536.782 326.409C536.782 326.409 566.661 326.821 566.636 342.718C566.622 351.694 564.697 433.188 559.341 482.695C555.211 520.872 547.326 530.832 547.326 530.832L528.445 487.852L536.782 326.409Z" fill="#E6E6E6"/>
<path d="M536.014 469.854H435.107C443.565 450.951 448.765 432.948 440.636 418.628L536.014 413.09C531.248 432.421 530.665 451.393 536.014 469.854Z" fill="#FFE3C3"/>
<path d="M523.573 302.331L483.487 299.562L466.9 320.329L458.49 321.861C445.885 324.156 436.909 335.423 437.472 348.243L440.743 422.706L536.557 429.704L559.513 332.737L531.867 321.714L523.573 302.331V302.331Z" fill="#E6E6E6"/>
<path d="M279.11 324.794C281.955 327.356 283.985 330.35 285.057 333.253L313.69 355.951L302.508 369.281L274.667 344.821C271.671 344.059 268.485 342.353 265.641 339.79C259.144 333.936 256.892 325.833 260.611 321.692C264.331 317.551 272.613 318.939 279.11 324.794L279.11 324.794Z" fill="#FFE3C3"/>
<path d="M481.545 343.902V343.902L371.835 418.102L293.192 363.287L304.999 341.866L366.895 377.894L423.976 333.996C444.302 314.873 469.777 318.58 481.545 343.902H481.545Z" fill="#E6E6E6"/>
<path d="M501.153 293.344C517.577 293.344 530.892 280.008 530.892 263.557C530.892 247.106 517.577 233.77 501.153 233.77C484.728 233.77 471.413 247.106 471.413 263.557C471.413 280.008 484.728 293.344 501.153 293.344Z" fill="#FFE3C3"/>
<path d="M541.576 256.239V262.015L508.036 252.56L482.89 257.838C482.598 254.004 481.465 250.239 479.577 246.904C480.891 252.253 481.038 256.391 479.646 258.525L476.264 259.23C475.715 257.734 474.651 256.428 473.26 255.637C473.123 255.551 472.951 255.482 472.797 255.534C472.557 255.62 472.539 255.929 472.539 256.17C472.574 257.442 472.608 258.714 472.66 259.987L462.944 262.015V256.239C453.624 235.234 478.19 217.058 502.269 216.869C513.134 216.784 522.952 221.27 530.075 228.388C537.182 235.523 541.576 245.356 541.576 256.239Z" fill="#792F02"/>
<path d="M560.444 323.972L557.911 323.762C558.091 322.933 558.272 322.114 558.436 321.284C559.84 314.322 556.75 305.459 556.523 298.77C555.331 305.837 557.37 314.532 555.26 321.242C555.025 321.988 545.86 326.799 545.609 327.534C535.466 323.819 524.903 311.948 512.942 318.881C505.868 322.982 497.797 321.185 489.765 319.307C487.777 318.842 487.501 309.009 485.533 308.623C482.009 307.931 476.835 316.87 473.518 317.219L487.249 263.924C487.249 234.931 484.568 204.513 521.236 214.764C530.458 217.343 539.585 219.364 546.392 226.987C553.198 234.621 558.044 245.29 559.762 257.44C560.797 264.769 567.258 289.656 560.444 323.972Z" fill="#792F02"/>
<path d="M536.765 859.908L520.396 860.295L511.272 786.637L535.429 786.065L536.765 859.908Z" fill="#FFE3C3"/>
<path d="M480.605 894.113C480.605 896.883 482.567 899.128 484.988 899.128H517.479C517.479 899.128 520.677 886.255 533.713 880.715L534.613 899.128H551.374L549.344 869.521C549.344 869.521 553.827 853.68 544.515 845.583C535.204 837.486 542.746 838.613 542.746 838.613L539.083 820.289L513.755 823.272L513.568 852.038L501.277 880.59L483.248 889.51C481.644 890.304 480.605 892.113 480.605 894.113H480.605H480.605Z" fill="#2F2E41"/>
<path d="M486.964 847.905L471.229 852.439L443.741 783.512L466.962 776.818L486.964 847.905Z" fill="#FFE3C3"/>
<path d="M441.308 895.264C442.01 897.943 444.477 899.616 446.818 899.001L478.246 890.743C478.246 890.743 478.077 877.478 489.283 868.806L494.819 886.388L511.031 882.128L501.566 854.006C501.566 854.006 501.89 837.544 490.831 832.079C479.773 826.614 487.354 825.787 487.354 825.787L479.168 808.993L455.425 818.316L462.532 846.187L457.877 876.93L442.699 890.14C441.348 891.316 440.801 893.33 441.308 895.264L441.308 895.264L441.308 895.264Z" fill="#2F2E41"/>
<path d="M526.728 465.503L537.027 468.941C553.129 498.728 559.956 538.283 559.051 585.981L540.758 800.212H510.828L488.925 561.55L450.305 651.129L478.562 800.212L450.305 803.098L393.391 648.075L433.028 467.9L526.728 465.503Z" fill="#012F6B"/>
</svg>
