<svg width="343" height="608" viewBox="0 0 343 608" fill="none" xmlns="http://www.w3.org/2000/svg">
<path d="M289.06 608H55.0345C26.4992 608 3.28375 584.725 3.28375 556.115V51.8839C3.28375 23.2752 26.4992 0 55.0345 0H289.06C317.595 0 340.81 23.2752 340.81 51.8839V556.115C340.81 584.725 317.595 608 289.06 608Z" fill="#3F3D56"/>
<path d="M340.811 185.473C339.603 185.473 338.621 186.457 338.621 187.668V257.906C338.621 259.117 339.603 260.101 340.811 260.101C342.018 260.101 343 259.117 343 257.906V187.668C343 186.457 342.018 185.473 340.811 185.473Z" fill="#3F3D56"/>
<path d="M335.885 51.8843V556.107C335.885 581.008 316.553 601.378 292.11 602.958H292.099C291.738 602.98 291.376 603.002 291.004 603.013C290.358 603.046 289.713 603.057 289.056 603.057C289.056 603.057 286.647 602.881 282.247 602.552C277.803 602.223 271.333 601.729 263.266 601.081C260.846 600.895 258.296 600.686 255.603 600.467C250.239 600.028 244.35 599.545 238.034 598.996C235.516 598.788 232.911 598.557 230.251 598.327C216.655 597.152 201.429 595.781 185.37 594.222C182.655 593.97 179.919 593.706 177.16 593.432C176.438 593.355 175.704 593.289 174.971 593.212C163.521 592.082 8.21021 561.989 8.21021 556.107V51.8843C8.21021 25.9511 29.1729 4.93452 55.0396 4.93452H82.9971C87.4633 4.93452 91.0537 8.42448 91.4369 12.8912C91.4697 13.1875 91.5026 13.4838 91.5573 13.7801C92.3673 18.2688 96.4723 21.3966 101.026 21.3966H243.069C247.623 21.3966 251.728 18.2688 252.538 13.7801C252.593 13.4838 252.626 13.1875 252.658 12.8912C253.042 8.42448 256.632 4.93452 261.098 4.93452H289.056C314.922 4.93452 335.885 25.9511 335.885 51.8843Z" fill="white"/>
<path d="M2.1893 132.794C0.981868 132.794 0 133.779 0 134.989V152.549C0 153.759 0.981881 154.744 2.1893 154.744C3.39673 154.744 4.37861 153.759 4.37861 152.549V134.989C4.37861 133.779 3.39673 132.794 2.1893 132.794Z" fill="#3F3D56"/>
<path d="M2.1893 185.473C0.981868 185.473 0 186.457 0 187.668V221.69C0 222.9 0.981881 223.884 2.1893 223.884C3.39673 223.884 4.37861 222.9 4.37861 221.69V187.668C4.37861 186.457 3.39673 185.473 2.1893 185.473Z" fill="#3F3D56"/>
<path d="M2.1893 233.762C0.981868 233.762 0 234.746 0 235.957V269.978C0 271.189 0.981881 272.173 2.1893 272.173C3.39673 272.173 4.37861 271.189 4.37861 269.978V235.957C4.37861 234.746 3.39673 233.762 2.1893 233.762Z" fill="#3F3D56"/>
<path d="M82.235 12.6211H40.3664C40.1391 12.6211 39.9549 12.8058 39.9549 13.0336V17.6959C39.9549 17.9238 40.1391 18.1085 40.3664 18.1085H82.235C82.4622 18.1085 82.6465 17.9238 82.6465 17.6959V13.0336C82.6465 12.8058 82.4622 12.6211 82.235 12.6211Z" fill="#E6E6E6"/>
<path d="M268.016 18.1085C270.434 18.1085 272.395 16.143 272.395 13.7186C272.395 11.2941 270.434 9.32868 268.016 9.32868C265.598 9.32868 263.638 11.2941 263.638 13.7186C263.638 16.143 265.598 18.1085 268.016 18.1085Z" fill="#E6E6E6"/>
<path d="M280.057 18.1085C282.476 18.1085 284.436 16.143 284.436 13.7186C284.436 11.2941 282.476 9.32868 280.057 9.32868C277.639 9.32868 275.679 11.2941 275.679 13.7186C275.679 16.143 277.639 18.1085 280.057 18.1085Z" fill="#E6E6E6"/>
<path d="M292.099 18.1085C294.517 18.1085 296.477 16.143 296.477 13.7186C296.477 11.2941 294.517 9.32868 292.099 9.32868C289.68 9.32868 287.72 11.2941 287.72 13.7186C287.72 16.143 289.68 18.1085 292.099 18.1085Z" fill="#E6E6E6"/>
<path d="M264.354 309.466H78.6458C75.7201 309.466 73.3398 307.08 73.3398 304.147C73.3398 301.213 75.7201 298.827 78.6458 298.827H264.354C267.28 298.827 269.66 301.213 269.66 304.147C269.66 307.08 267.28 309.466 264.354 309.466Z" fill="#E6E6E6"/>
<path d="M172.166 515.601C214.657 515.601 249.103 481.067 249.103 438.467C249.103 395.867 214.657 361.333 172.166 361.333C129.675 361.333 95.2297 395.867 95.2297 438.467C95.2297 481.067 129.675 515.601 172.166 515.601Z" fill="#62E0F6"/>
<path d="M184.393 413.282C177.901 413.549 170.56 413.996 165.761 418.991C161.592 423.33 160.678 429.77 164.906 434.403C169.145 439.048 175.736 439.677 180.623 443.301C186.36 447.556 185.52 455.974 179.967 460.006C173.42 464.762 164.966 462.545 158.98 458.02C157.446 456.861 155.957 459.458 157.474 460.604C162.837 464.658 169.835 466.914 176.466 464.975C182.45 463.224 187.089 458.332 187.561 451.968C187.786 448.931 186.925 445.849 185.041 443.451C183.053 440.92 180.189 439.363 177.294 438.095C172.31 435.914 163.728 433.091 165.177 425.988C166.933 417.378 177.386 416.562 184.393 416.274C186.307 416.195 186.317 413.202 184.393 413.282L184.393 413.282Z" fill="white"/>
<path d="M172.348 409.209L172.062 474.897C172.054 476.823 175.038 476.825 175.047 474.897L175.333 409.209C175.341 407.283 172.357 407.281 172.348 409.209Z" fill="white"/>
<path d="M97.0716 193.733L86.1547 188.548C90.6323 194.813 94.4906 204.597 96.5562 212.383C100.054 205.131 105.691 196.257 111.272 190.956L99.7339 193.932C106.844 158.998 133.585 133.919 164.207 133.919V131.259C132.221 131.259 104.331 157.389 97.0716 193.733Z" fill="#3F3D56"/>
<path d="M147.318 246.961H78.3404C75.4148 246.961 73.0345 244.574 73.0345 241.641C73.0345 238.708 75.4148 236.322 78.3404 236.322H147.318C150.244 236.322 152.624 238.708 152.624 241.641C152.624 244.574 150.244 246.961 147.318 246.961Z" fill="#E6E6E6"/>
</svg>
